# xmcd
#
# Track frame offsets: 
#        183
#        18208
#        44758
#        56833
#        81195
#        95583
#        112170
#        129820
#        221770
#        255583
#        283520
#
# Disc length: 4174 seconds
#
# Revision: 1
# Processed by: cddbd v1.5.2PL0 Copyright (c) Steve Scherf et al.
# Submitted via: ExactAudioCopyFreeDBPlugin 1.0
#
DISCID=9e104c0b
DTITLE=American Composers Orchestra / McPhee: Tabuh-Tabuhan; Ung: Inne
DTITLE=r Voices; Harrison: Suite for Symphonic Strings
DYEAR=1995
DGENRE=Classical
TTITLE0=Suite for Symphonic Strings - Estampie
TTITLE1=Suite for Symphonic Strings - Chorale: Et in Arcadia ego
TTITLE2=Suite for Symphonic Strings - Ductia: In honor of Eros
TTITLE3=Suite for Symphonic Strings - Lament
TTITLE4=Suite for Symphonic Strings - Round: In honor of Hermes
TTITLE5=Suite for Symphonic Strings - Little fugue: Viola's reward
TTITLE6=Suite for Symphonic Strings - Nocturne
TTITLE7=Inner Voices
TTITLE8=Tabuh-Tabuhan I. Ostinatos
TTITLE9=Tabuh-Tabuhan II. Nocturne
TTITLE10=Tabuh-Tabuhan III. Finale
EXTD=YEAR: 1995
EXTT0=
EXTT1=
EXTT2=
EXTT3=
EXTT4=
EXTT5=
EXTT6=
EXTT7=
EXTT8=
EXTT9=
EXTT10=
PLAYORDER=
